<?xml version="1.0" standalone="no"?>
<!DOCTYPE svg PUBLIC "-//W3C//DTD SVG 20010904//EN"
 "http://www.w3.org/TR/2001/REC-SVG-20010904/DTD/svg10.dtd">
<svg version="1.0" xmlns="http://www.w3.org/2000/svg"
 width="1280.000000pt" height="1280.000000pt" viewBox="0 0 1280.000000 1280.000000"
 preserveAspectRatio="xMidYMid meet">

<g transform="translate(0.000000,1280.000000) scale(0.100000,-0.100000)"
fill="#000000" stroke="none">
<path d="M5472 6408 l3 -1163 29 2 c16 1 29 3 30 5 2 2 0 524 -2 1161 l-4
1157 -29 0 -29 0 2 -1162z"/>
<path d="M6643 7330 c-27 -11 -38 -43 -23 -70 13 -25 75 -28 84 -4 12 31 6 63
-13 74 -22 11 -19 11 -48 0z"/>
<path d="M1174 7314 c15 -39 719 -1326 743 -1359 31 -42 59 -47 266 -53 109
-3 200 -9 203 -14 3 -5 -17 -48 -44 -96 -27 -48 -53 -101 -56 -118 -6 -27 -13
-32 -44 -38 -20 -3 -278 -6 -573 -6 l-536 0 -32 -72 c-17 -39 -29 -74 -26 -77
11 -10 3078 -1 3120 10 54 15 99 65 162 179 50 93 263 487 486 900 60 113 127
233 149 268 21 35 38 64 38 65 0 3 -1634 -2 -1860 -6 -207 -3 -224 -7 -279
-74 -18 -21 -47 -68 -66 -106 l-34 -67 -117 227 c-65 125 -140 275 -168 335
-35 73 -57 109 -71 112 -11 3 -301 6 -644 6 -571 0 -623 -1 -617 -16z m1222
-132 c6 -4 81 -144 167 -312 87 -168 213 -411 282 -540 68 -129 125 -242 125
-251 0 -9 -10 -19 -22 -23 -13 -3 -230 -6 -484 -6 -353 0 -464 3 -476 13 -23
18 -43 53 -268 462 -197 359 -330 618 -330 642 0 7 18 14 43 16 80 7 952 7
963 -1z m1412 -359 c-2 -20 -9 -29 -25 -31 -18 -3 -23 1 -23 21 0 29 7 37 32
37 15 0 19 -6 16 -27z m899 -98 c6 -18 -39 -123 -102 -235 -24 -41 -121 -219
-217 -395 -185 -338 -248 -443 -276 -460 -18 -10 -1586 -9 -1629 2 -29 7 -25
27 33 153 27 60 51 100 66 107 17 9 99 13 300 13 187 0 279 4 283 11 8 12 -6
41 -158 327 -60 111 -111 217 -114 236 -4 26 3 48 36 105 23 40 41 76 41 79 0
4 9 22 20 40 l20 32 845 0 c754 0 846 -2 852 -15z m-2161 -720 c8 -19 -33 -54
-63 -55 -18 0 -23 6 -23 23 0 37 74 64 86 32z"/>
<path d="M6032 7317 c-9 -11 -12 -94 -10 -328 l3 -314 136 2 c157 2 206 12
254 54 43 38 60 91 50 156 -6 40 -14 55 -56 94 -27 26 -49 50 -49 53 0 4 19
27 41 51 40 43 41 47 35 92 -8 60 -33 102 -76 128 -30 17 -56 21 -176 23 -114
3 -142 1 -152 -11z m243 -48 c53 -14 65 -32 65 -98 0 -101 -26 -125 -147 -136
-85 -9 -81 -15 -85 130 -3 86 -2 89 22 102 31 16 91 17 145 2z m15 -279 c53
-15 85 -68 85 -141 0 -50 -4 -62 -29 -88 -34 -35 -104 -54 -181 -49 l-50 3 0
135 0 135 40 6 c64 10 98 10 135 -1z"/>
<path d="M7283 7320 l-23 -9 1 -258 c1 -142 4 -285 8 -318 l6 -60 145 0 c131
0 150 2 191 23 69 34 104 89 104 164 0 55 -3 62 -35 91 -19 18 -48 42 -65 55
l-30 22 45 39 c42 37 45 42 44 89 -1 72 -20 109 -73 140 -43 25 -55 27 -171
29 -69 2 -135 -2 -147 -7z m278 -78 c31 -35 35 -63 19 -124 -16 -58 -50 -78
-131 -78 -103 0 -99 -5 -99 120 0 77 4 110 13 114 6 3 47 4 90 3 75 -2 80 -4
108 -35z m-52 -253 c72 -15 111 -61 111 -130 0 -65 -21 -101 -77 -128 -51 -25
-139 -28 -169 -7 -17 13 -19 29 -22 137 -3 94 -1 124 10 130 18 12 87 11 147
-2z"/>
<path d="M7867 7322 c-3 -4 -8 -145 -11 -313 -6 -336 -5 -344 49 -337 l30 3 3
301 c1 182 -2 312 -8 328 -7 18 -17 26 -34 26 -14 0 -27 -3 -29 -8z"/>
<path d="M6933 7293 c-9 -3 -13 -28 -13 -73 l0 -68 -46 -11 c-53 -14 -53 -15
1 -33 l40 -13 0 -165 c0 -144 2 -170 18 -194 24 -36 73 -56 136 -56 40 0 53 4
65 22 8 12 13 24 11 28 -3 4 -32 10 -65 12 -33 2 -66 10 -73 17 -15 15 -12
302 3 332 8 14 21 19 50 19 53 0 51 16 -2 30 -24 6 -49 13 -55 15 -8 3 -13 22
-13 49 0 77 -18 105 -57 89z"/>
<path d="M8260 7151 c-147 -45 -221 -197 -162 -332 69 -157 220 -205 352 -111
86 61 122 152 100 257 -11 51 -20 66 -69 116 -73 72 -141 94 -221 70z m136
-67 c114 -86 93 -311 -34 -368 -48 -22 -78 -17 -122 20 -92 78 -103 237 -22
326 20 22 46 44 57 49 30 13 86 0 121 -27z"/>
<path d="M8813 7146 c-62 -20 -101 -52 -131 -109 -36 -69 -38 -180 -5 -243 29
-55 106 -122 150 -130 100 -19 200 23 259 109 44 64 53 132 26 210 -50 142
-165 204 -299 163z m123 -42 c39 -19 91 -92 100 -141 17 -93 -16 -191 -81
-235 -56 -39 -95 -37 -144 7 -54 49 -71 90 -71 169 0 75 18 127 58 170 46 48
83 56 138 30z"/>
<path d="M9416 7139 c-33 -18 -46 -20 -86 -12 -26 5 -57 6 -69 2 -21 -8 -21
-12 -21 -228 l0 -219 26 -6 c14 -4 34 -4 45 -1 18 6 19 18 19 180 0 96 4 185
10 199 6 16 21 28 43 34 38 11 112 1 130 -17 8 -8 14 -77 17 -204 l5 -192 35
0 35 0 5 188 5 189 28 24 c30 25 77 31 120 15 39 -15 47 -58 47 -242 l0 -169
46 0 46 0 -4 188 c-3 155 -7 193 -22 220 -35 67 -142 83 -217 32 -55 -37 -65
-37 -115 -1 -55 41 -81 45 -128 20z"/>
<path d="M6624 7127 c-2 -7 -3 -111 -2 -232 l3 -220 43 -3 42 -3 0 229 c0 200
-2 231 -16 236 -27 10 -64 7 -70 -7z"/>
<path d="M10637 6353 c-10 -9 -8 -66 3 -83 7 -11 15 -12 37 -4 34 12 53 55 33
78 -12 16 -61 22 -73 9z"/>
<path d="M6013 6335 c-3 -9 -2 -19 2 -23 3 -4 61 -9 128 -12 l122 -5 3 -298 2
-298 43 3 42 3 3 285 c1 157 4 291 7 298 3 8 33 12 104 12 77 0 103 4 115 16
9 8 16 20 16 25 0 5 -118 9 -290 9 -253 0 -291 -2 -297 -15z"/>
<path d="M7569 6343 c-5 -59 4 -630 11 -637 4 -4 22 -5 38 -1 l30 6 4 180 3
181 28 23 c36 32 93 42 126 24 51 -28 62 -72 64 -253 l2 -166 37 0 c35 0 38 2
44 36 11 59 -3 294 -20 351 -14 45 -22 54 -60 73 -73 35 -105 35 -155 1 -64
-43 -73 -32 -69 81 2 71 0 91 -12 98 -18 12 -70 13 -71 3z"/>
<path d="M9237 6343 c-16 -4 -17 -26 -15 -321 l3 -317 36 -3 c34 -3 37 -1 43
29 3 17 6 159 6 315 l0 284 -26 10 c-14 6 -26 9 -27 9 -1 -1 -10 -3 -20 -6z"/>
<path d="M6661 6179 c-46 -14 -124 -94 -139 -145 -44 -149 33 -307 162 -334
120 -25 232 16 250 91 8 37 -3 43 -27 13 -26 -33 -97 -64 -148 -64 -52 0 -91
21 -126 67 -27 35 -28 40 -25 136 3 108 14 142 58 176 41 32 69 36 111 14 78
-40 112 -144 58 -179 -15 -9 -34 -14 -48 -10 -13 3 -52 0 -86 -7 -60 -13 -61
-14 -36 -25 32 -15 70 -15 153 -1 44 8 71 8 86 1 20 -9 24 -6 35 24 14 39 8
81 -19 134 -47 92 -157 138 -259 109z"/>
<path d="M7208 6176 c-55 -20 -85 -42 -118 -87 -97 -135 -28 -353 123 -390 98
-23 237 21 237 76 0 19 2 19 -55 -6 -28 -13 -71 -22 -106 -22 -52 -2 -62 2
-90 28 -43 41 -72 108 -73 171 -1 92 83 194 159 194 22 0 50 -12 81 -35 62
-44 71 -48 89 -41 39 15 -15 74 -98 104 -66 25 -97 27 -149 8z"/>
<path d="M8797 6179 c-57 -13 -91 -34 -129 -79 -91 -105 -74 -261 39 -360 65
-57 107 -68 186 -46 76 21 118 52 153 112 75 128 36 275 -91 344 -59 33 -106
41 -158 29z m102 -54 c113 -58 136 -246 42 -345 -64 -67 -121 -65 -188 7 -93
99 -80 259 26 330 39 26 80 29 120 8z"/>
<path d="M9619 6176 c-91 -32 -147 -91 -170 -178 -35 -131 79 -300 213 -315
60 -7 148 28 189 74 46 53 61 98 63 183 1 65 -3 81 -27 122 -60 103 -170 149
-268 114z m148 -71 c53 -45 67 -87 61 -187 -4 -67 -9 -85 -34 -120 -37 -52
-85 -82 -119 -74 -37 9 -105 75 -126 121 -22 48 -25 142 -6 188 8 18 33 49 56
70 34 31 48 37 84 37 35 0 51 -7 84 -35z"/>
<path d="M11026 6183 c-73 -19 -146 -105 -167 -198 -30 -133 87 -295 212 -295
107 0 189 41 189 95 l0 26 -46 -32 c-82 -56 -149 -57 -207 -2 -39 37 -57 75
-57 118 0 40 -1 40 65 19 47 -14 154 -17 218 -6 46 8 61 41 48 104 -7 29 -23
70 -37 91 -41 63 -141 99 -218 80z m128 -74 c41 -45 56 -77 56 -120 0 -44 -35
-55 -156 -49 l-99 5 -3 37 c-6 74 68 168 133 168 26 0 41 -9 69 -41z"/>
<path d="M11480 6168 c-53 -27 -80 -73 -80 -136 0 -62 19 -78 183 -151 62 -28
67 -32 67 -61 0 -46 -16 -68 -56 -79 -56 -15 -87 -4 -145 55 -29 30 -57 54
-62 54 -20 0 2 -83 29 -111 94 -98 296 -49 320 77 5 27 1 43 -20 74 -28 43
-69 67 -156 94 -103 32 -132 76 -81 126 46 47 114 35 176 -30 34 -36 45 -38
45 -7 0 36 -28 67 -84 93 -63 30 -80 30 -136 2z"/>
<path d="M8240 6171 c-14 -5 -48 -9 -75 -10 -28 -1 -56 -6 -63 -13 -13 -13
-17 -307 -6 -392 7 -51 20 -62 59 -52 l25 6 0 181 c0 99 4 189 10 199 20 38
126 53 167 25 34 -24 43 -76 43 -247 0 -146 1 -157 19 -163 11 -3 31 -3 46 1
l27 7 -4 171 c-3 188 -14 229 -71 270 -30 22 -132 32 -177 17z"/>
<path d="M10150 6164 c-80 -34 -119 -94 -127 -193 -9 -105 2 -156 44 -202 42
-47 73 -64 138 -79 44 -10 50 -8 101 20 29 17 59 28 65 24 17 -10 3 -99 -23
-146 -13 -23 -35 -50 -50 -61 -25 -18 -31 -19 -70 -8 -23 7 -58 24 -77 37 -38
26 -91 32 -91 11 0 -44 100 -97 183 -97 81 1 158 54 194 135 15 35 18 70 17
283 -1 140 -5 247 -11 253 -12 12 -165 39 -218 39 -22 -1 -56 -8 -75 -16z
m159 -49 c43 -22 61 -78 61 -191 0 -52 -4 -104 -10 -114 -5 -10 -30 -30 -56
-45 -59 -34 -85 -28 -145 34 -38 40 -47 56 -53 98 -21 158 90 277 203 218z"/>
<path d="M10632 5928 l3 -233 29 0 c24 0 31 5 37 28 10 38 15 410 5 425 -4 7
-23 12 -42 12 l-34 0 2 -232z"/>
</g>
</svg>
